<svg xmlns="http://www.w3.org/2000/svg" viewBox="0 0 1132 804">
    <style type="text/css">
        <![CDATA[
    .st2 {fill:#000000;font-family:Calibri;font-size:14pt}
    .st1 {fill:#000000;font-family:Calibri;font-size:26pt}
    ]]>
    </style>
    <defs/>
    <g id="page1" transform="translate(5,5)">
        <rect width="1123" height="794" x="0" y="0" fill="#FFFFFF" stroke="#808080"/>
        <path id="shape1" fill="#ffffff" stroke="#000000" d="M351.5,0L497.1,145.6L497.1,351.5L351.5,497.1L145.6,497.1L0,351.5L0,145.6L145.6,0L351.5,0z" transform="matrix(-0.38,0.93,-0.93,-0.38,892.1,271.1)"/>
        <g transform="translate(368.19,84.02)"/>
        <path id="shape2" fill="none" stroke="#000000" d="M0,0L437.5,0" transform="matrix(-0.38,0.93,-0.93,-0.38,568.7,174.7)"/>
        <path id="shape3" fill="none" stroke="#000000" d="M0,0L447.2,0" transform="matrix(0.02,1,-1,0.02,568.7,174.7)"/>
        <path id="shape4" fill="none" stroke="#000000" d="M0,0L432.4,0" transform="matrix(0.39,0.92,-0.92,0.39,568.7,174.7)"/>
        <path id="shape5" fill="none" stroke="#000000" d="M0,0L314.8,0" transform="matrix(0.71,0.7,-0.7,0.71,596.5,146.9)"/>
        <path id="shape6" fill="none" stroke="#000000" d="M0,0L314.3,0" transform="matrix(-0.7,0.71,-0.71,-0.7,548.4,167.2)"/>
        <path id="shape7" fill="none" stroke="#000000" d="M0,0L317.2,0" transform="translate(408.72,223.27)"/>
        <path id="shape8" fill="none" stroke="#000000" d="M0,0L436.1,0" transform="matrix(0.94,0.33,-0.33,0.94,408.7,223.3)"/>
        <path id="shape9" fill="none" stroke="#000000" d="M0,0L418.9,0" transform="matrix(0.42,0.91,-0.91,0.42,400.6,241.2)"/>
        <path id="shape10" fill="none" stroke="#000000" d="M0,0L318.5,0" transform="matrix(0,1,-1,0,380.9,251.1)"/>
        <path id="shape11" fill="none" stroke="#000000" d="M0,0L471.8,0" transform="matrix(0.71,0.7,-0.7,0.71,400.6,241.2)"/>
        <path id="shape12" fill="none" stroke="#000000" d="M0,0L432.1,0" transform="matrix(0.92,-0.39,0.39,0.92,327.7,390.9)"/>
        <path id="shape13" fill="none" stroke="#000000" d="M0,0L470,0" transform="matrix(1,-0.01,0.01,1,333.5,411.8)"/>
        <path id="shape14" fill="none" stroke="#000000" d="M0,0L434.6,0" transform="matrix(0.94,0.33,-0.33,0.94,325.3,429.7)"/>
        <path id="shape15" fill="none" stroke="#000000" d="M0,0L312.8,0" transform="matrix(0.71,0.71,-0.71,0.71,325.3,429.7)"/>
        <path id="shape16" fill="none" stroke="#000000" d="M0,0L443.9,0" transform="matrix(0.94,-0.34,0.34,0.94,402.9,579.5)"/>
        <path id="shape17" fill="none" stroke="#000000" d="M0,0L319.6,0" transform="matrix(1,-0.01,0.01,1,408.7,600.4)"/>
        <path id="shape18" fill="none" stroke="#000000" d="M0,0L473.5,0" transform="matrix(-0.7,0.71,-0.71,-0.7,736.5,243.5)"/>
        <path id="shape19" fill="none" stroke="#000000" d="M0,0L314.9,0" transform="matrix(0.01,1,-1,0.01,756.8,251.1)"/>
        <g id="shape20" transform="translate(373.17,73.85)">
            <text class="st1">
                <tspan x="28.9" y="24.8">标题文字</tspan>
            </text>
        </g>
        <g transform="translate(350.04,192.39)">
            <path id="shape21" fill="#f8d7cd" stroke="#f8d7cd" d="M0,29.3C0,13.1,13.1,0,29.3,0C45.5,0,58.7,13.1,58.7,29.3C58.7,45.5,45.5,58.7,29.3,58.7C13.1,58.7,0,45.5,0,29.3zM29.3,49.4C39.6,49.4,47.9,40.4,47.9,29.3C47.9,18.3,39.6,9.3,29.3,9.3C19.1,9.3,10.8,18.3,10.8,29.3C10.8,40.4,19.1,49.4,29.3,49.4z"/>
            <path id="shape22" fill="#f8d7cd" stroke="#000000" d="M0,20.1C0,9,8.3,0,18.5,0C28.8,0,37.1,9,37.1,20.1C37.1,31.2,28.8,40.2,18.5,40.2C8.3,40.2,0,31.2,0,20.1z" transform="translate(10.81,9.27)"/>
        </g>
        <g transform="translate(274.78,380.87)">
            <path id="shape23" fill="#f8d7cd" stroke="#f8d7cd" d="M0,29.3C0,13.1,13.1,0,29.3,0C45.5,0,58.7,13.1,58.7,29.3C58.7,45.5,45.5,58.7,29.3,58.7C13.1,58.7,0,45.5,0,29.3zM29.3,49.4C39.6,49.4,47.9,40.4,47.9,29.3C47.9,18.3,39.6,9.3,29.3,9.3C19.1,9.3,10.8,18.3,10.8,29.3C10.8,40.4,19.1,49.4,29.3,49.4z"/>
            <path id="shape24" fill="#f8d7cd" stroke="#000000" d="M0,20.1C0,9,8.3,0,18.5,0C28.8,0,37.1,9,37.1,20.1C37.1,31.2,28.8,40.2,18.5,40.2C8.3,40.2,0,31.2,0,20.1z" transform="translate(10.81,9.27)"/>
        </g>
        <g transform="translate(350.04,566)">
            <path id="shape25" fill="#f8d7cd" stroke="#f8d7cd" d="M0,29.3C0,13.1,13.1,0,29.3,0C45.5,0,58.7,13.1,58.7,29.3C58.7,45.5,45.5,58.7,29.3,58.7C13.1,58.7,0,45.5,0,29.3zM29.3,49.4C39.6,49.4,47.9,40.4,47.9,29.3C47.9,18.3,39.6,9.3,29.3,9.3C19.1,9.3,10.8,18.3,10.8,29.3C10.8,40.4,19.1,49.4,29.3,49.4z"/>
            <path id="shape26" fill="#f8d7cd" stroke="#000000" d="M0,20.1C0,9,8.3,0,18.5,0C28.8,0,37.1,9,37.1,20.1C37.1,31.2,28.8,40.2,18.5,40.2C8.3,40.2,0,31.2,0,20.1z" transform="translate(10.81,9.27)"/>
        </g>
        <g transform="translate(546.05,621.81)">
            <path id="shape27" fill="#f8d7cd" stroke="#f8d7cd" d="M0,27.9C0,12.5,12.5,0,27.9,0C43.4,0,55.9,12.5,55.9,27.9C55.9,43.4,43.4,55.9,27.9,55.9C12.5,55.9,0,43.4,0,27.9zM27.9,47.1C37.7,47.1,45.6,38.5,45.6,27.9C45.6,17.4,37.7,8.8,27.9,8.8C18.2,8.8,10.3,17.4,10.3,27.9C10.3,38.5,18.2,47.1,27.9,47.1z"/>
            <path id="shape28" fill="#f8d7cd" stroke="#000000" d="M0,19.1C0,8.6,7.9,0,17.6,0C27.4,0,35.3,8.6,35.3,19.1C35.3,29.7,27.4,38.2,17.6,38.2C7.9,38.2,0,29.7,0,19.1z" transform="translate(10.29,8.82)"/>
        </g>
        <path id="shape29" fill="none" stroke="#000000" d="M0,0L411.1,0" transform="matrix(-0.39,0.92,-0.92,-0.39,736.5,243.5)"/>
        <g transform="translate(537.82,116.02)">
            <path id="shape30" fill="#f8d7cd" stroke="#f8d7cd" d="M0,29.3C0,13.1,13.1,0,29.3,0C45.5,0,58.7,13.1,58.7,29.3C58.7,45.5,45.5,58.7,29.3,58.7C13.1,58.7,0,45.5,0,29.3zM29.3,49.4C39.6,49.4,47.9,40.4,47.9,29.3C47.9,18.3,39.6,9.3,29.3,9.3C19.1,9.3,10.8,18.3,10.8,29.3C10.8,40.4,19.1,49.4,29.3,49.4z"/>
            <path id="shape31" fill="#f8d7cd" stroke="#000000" d="M0,20.1C0,9,8.3,0,18.5,0C28.8,0,37.1,9,37.1,20.1C37.1,31.2,28.8,40.2,18.5,40.2C8.3,40.2,0,31.2,0,20.1z" transform="translate(10.81,9.27)"/>
        </g>
        <g transform="translate(725.94,192.39)">
            <path id="shape32" fill="#f8d7cd" stroke="#f8d7cd" d="M0,29.3C0,13.1,13.1,0,29.3,0C45.5,0,58.7,13.1,58.7,29.3C58.7,45.5,45.5,58.7,29.3,58.7C13.1,58.7,0,45.5,0,29.3zM29.3,49.4C39.6,49.4,47.9,40.4,47.9,29.3C47.9,18.3,39.6,9.3,29.3,9.3C19.1,9.3,10.8,18.3,10.8,29.3C10.8,40.4,19.1,49.4,29.3,49.4z"/>
            <path id="shape33" fill="#f8d7cd" stroke="#000000" d="M0,20.1C0,9,8.3,0,18.5,0C28.8,0,37.1,9,37.1,20.1C37.1,31.2,28.8,40.2,18.5,40.2C8.3,40.2,0,31.2,0,20.1z" transform="translate(10.81,9.27)"/>
        </g>
        <g transform="translate(789.05,368.62)">
            <path id="shape34" fill="#f8d7cd" stroke="#f8d7cd" d="M0,29.3C0,13.1,13.1,0,29.3,0C45.5,0,58.7,13.1,58.7,29.3C58.7,45.5,45.5,58.7,29.3,58.7C13.1,58.7,0,45.5,0,29.3zM29.3,49.4C39.6,49.4,47.9,40.4,47.9,29.3C47.9,18.3,39.6,9.3,29.3,9.3C19.1,9.3,10.8,18.3,10.8,29.3C10.8,40.4,19.1,49.4,29.3,49.4z"/>
            <path id="shape35" fill="#f8d7cd" stroke="#000000" d="M0,20.1C0,9,8.3,0,18.5,0C28.8,0,37.1,9,37.1,20.1C37.1,31.2,28.8,40.2,18.5,40.2C8.3,40.2,0,31.2,0,20.1z" transform="translate(10.81,9.27)"/>
        </g>
        <g transform="translate(717.44,564.83)">
            <path id="shape36" fill="#f8d7cd" stroke="#f8d7cd" d="M0,29.3C0,13.1,13.1,0,29.3,0C45.5,0,58.7,13.1,58.7,29.3C58.7,45.5,45.5,58.7,29.3,58.7C13.1,58.7,0,45.5,0,29.3zM29.3,49.4C39.6,49.4,47.9,40.4,47.9,29.3C47.9,18.3,39.6,9.3,29.3,9.3C19.1,9.3,10.8,18.3,10.8,29.3C10.8,40.4,19.1,49.4,29.3,49.4z"/>
            <path id="shape37" fill="#f8d7cd" stroke="#000000" d="M0,20.1C0,9,8.3,0,18.5,0C28.8,0,37.1,9,37.1,20.1C37.1,31.2,28.8,40.2,18.5,40.2C8.3,40.2,0,31.2,0,20.1z" transform="translate(10.81,9.27)"/>
        </g>
        <g transform="translate(222.07,697.88)">
            <g transform="translate(254.93,4.42)">
                <g transform="translate(-16.84,0)">
                    <g id="shape38" transform="translate(108.49,5.23)">
                        <text class="st2">
                            <tspan x="16.4" y="23.1">图例文字示例</tspan>
                        </text>
                    </g>
                </g>
                <g transform="translate(-0,0)">
                    <path id="shape39" fill="#f8d7cd" stroke="#f8d7cd" d="M0,22.8C0,10.2,10.2,0,22.8,0C35.3,0,45.5,10.2,45.5,22.8C45.5,35.3,35.3,45.5,22.8,45.5C10.2,45.5,0,35.3,0,22.8zM22.8,38.3C30.7,38.3,37.2,31.4,37.2,22.8C37.2,14.2,30.7,7.2,22.8,7.2C14.9,7.2,8.4,14.2,8.4,22.8C8.4,31.4,14.9,38.3,22.8,38.3z"/>
                    <path id="shape40" fill="#f8d7cd" stroke="#000000" d="M0,15.6C0,7,6.4,0,14.4,0C22.3,0,28.8,7,28.8,15.6C28.8,24.2,22.3,31.2,14.4,31.2C6.4,31.2,0,24.2,0,15.6z" transform="translate(8.39,7.19)"/>
                </g>
            </g>
        </g>
    </g>
</svg>
